Alicia Keys - Girl on Fire & New Day (Live at People's Choice Awards 01-09-2013) HDTV 1080i - TrollHD


Format                           : MPEG-TS
File size                        : 666 MiB
Duration                         : 5mn 27s
Overall bit rate mode            : Variable
Overall bit rate                 : 17.1 Mbps

Video
ID                               : 224 (0xE0)
Menu ID                          : 1 (0x1)
Format                           : MPEG Video
Format version                   : Version 2
Format profile                   : Main@High
Format settings, BVOP            : Yes
Format settings, Matrix          : Custom
Format settings, GOP             : M=3, N=15
Codec ID                         : 2
Duration                         : 5mn 26s
Bit rate mode                    : Variable
Bit rate                         : 15.8 Mbps
Maximum bit rate                 : 38.8 Mbps
Width                            : 1 920 pixels
Height                           : 1 080 pixels
Display aspect ratio             : 16:9
Frame rate                       : 29.970 fps
Standard                         : PAL
Color space                      : YUV
Chroma subsampling               : 4:2:0
Bit depth                        : 8 bits
Scan type                        : Interlaced
Scan order                       : Top Field First
Compression mode                 : Lossy
Bits/(Pixel*Frame)               : 0.254
Stream size                      : 615 MiB (92%)
Color primaries                  : BT.709
Transfer characteristics         : BT.709
Matrix coefficients              : BT.709

Audio
ID                               : 128 (0x80)
Menu ID                          : 1 (0x1)
Format                           : AC-3
Format/Info                      : Audio Coding 3
Mode extension                   : CM (complete main)
Codec ID                         : 129
Duration                         : 5mn 26s
Bit rate mode                    : Constant
Bit rate                         : 448 Kbps
Channel(s)                       : 6 channels
Channel positions                : Front: L C R, Side: L R, LFE
Sampling rate                    : 48.0 KHz
Bit depth                        : 16 bits
Compression mode                 : Lossy
Stream size                      : 17.5 MiB (3%)
Language                         : English

Text #1
ID                               : 224 (0xE0)-608-1
Menu ID                          : 1 (0x1)
Format                           : EIA-608
Muxing mode                      : A/53 / DTVCC Transport
Muxing mode, more info           : Muxed in Video #1
Duration                         : 5mn 26s
Bit rate mode                    : Constant
Stream size                      : 0.00 Byte (0%)

Text #2
ID                               : 224 (0xE0)-1
Menu ID                          : 1 (0x1)
Format                           : EIA-708
Muxing mode                      : A/53 / DTVCC Transport
Muxing mode, more info           : Muxed in Video #1
Duration                         : 5mn 26s
Bit rate mode                    : Constant
Stream size                      : 0.00 Byte (0%)

